<mxfile host="Electron" modified="2024-04-06T04:31:50.064Z" agent="Mozilla/5.0 (Windows NT 10.0; Win64; x64) AppleWebKit/537.36 (KHTML, like Gecko) draw.io/24.0.4 Chrome/120.0.6099.109 Electron/28.1.0 Safari/537.36" etag="c_WK-I-GdT3OkumBjbcr" version="24.0.4" type="device">
  <diagram name="Page-1" id="ppZMmiEuSEUpjYbNcqeP">
    <mxGraphModel dx="1323" dy="865" grid="1" gridSize="10" guides="1" tooltips="1" connect="1" arrows="1" fold="1" page="1" pageScale="1" pageWidth="850" pageHeight="1100" math="0" shadow="0">
      <root>
        <mxCell id="0" />
        <mxCell id="1" parent="0" />
        <mxCell id="h48BC2gFiE21k5p0eHc1-1" value="&lt;b&gt;&lt;font style=&quot;font-size: 22px;&quot;&gt;Soru 4&lt;/font&gt;&lt;/b&gt;" style="rounded=0;whiteSpace=wrap;html=1;fillColor=#d80073;strokeColor=#A50040;fontColor=#ffffff;" vertex="1" parent="1">
          <mxGeometry x="120" y="10" width="120" height="60" as="geometry" />
        </mxCell>
        <mxCell id="h48BC2gFiE21k5p0eHc1-3" value="" style="edgeStyle=orthogonalEdgeStyle;rounded=0;orthogonalLoop=1;jettySize=auto;html=1;entryX=0.5;entryY=0;entryDx=0;entryDy=0;" edge="1" parent="1" source="h48BC2gFiE21k5p0eHc1-4" target="h48BC2gFiE21k5p0eHc1-6">
          <mxGeometry relative="1" as="geometry">
            <mxPoint x="395" y="75" as="targetPoint" />
          </mxGeometry>
        </mxCell>
        <mxCell id="h48BC2gFiE21k5p0eHc1-4" value="" style="ellipse;html=1;shape=startState;fillColor=#000000;strokeColor=#ff0000;" vertex="1" parent="1">
          <mxGeometry x="400" width="30" height="30" as="geometry" />
        </mxCell>
        <mxCell id="h48BC2gFiE21k5p0eHc1-6" value="&lt;span style=&quot;font-size: 14.6667px;&quot;&gt;&lt;b&gt;Hasta Girişi&lt;/b&gt;&lt;/span&gt;" style="rounded=1;whiteSpace=wrap;html=1;arcSize=40;fillColor=#ffff88;strokeColor=#36393d;" vertex="1" parent="1">
          <mxGeometry x="330" y="80" width="170" height="40" as="geometry" />
        </mxCell>
        <mxCell id="h48BC2gFiE21k5p0eHc1-101" value="" style="edgeStyle=orthogonalEdgeStyle;rounded=0;orthogonalLoop=1;jettySize=auto;html=1;" edge="1" parent="1" source="h48BC2gFiE21k5p0eHc1-11" target="h48BC2gFiE21k5p0eHc1-100">
          <mxGeometry relative="1" as="geometry" />
        </mxCell>
        <mxCell id="h48BC2gFiE21k5p0eHc1-104" value="" style="edgeStyle=orthogonalEdgeStyle;rounded=0;orthogonalLoop=1;jettySize=auto;html=1;" edge="1" parent="1" source="h48BC2gFiE21k5p0eHc1-11" target="h48BC2gFiE21k5p0eHc1-103">
          <mxGeometry relative="1" as="geometry" />
        </mxCell>
        <mxCell id="h48BC2gFiE21k5p0eHc1-11" value="&lt;b style=&quot;&quot;&gt;&lt;font style=&quot;font-size: 15px;&quot;&gt;Konsültasyon Tamamlandı mı?&lt;/font&gt;&lt;/b&gt;" style="rounded=1;whiteSpace=wrap;html=1;arcSize=40;fillColor=#ffff88;strokeColor=#36393d;" vertex="1" parent="1">
          <mxGeometry x="301.25" y="560" width="227.5" height="50" as="geometry" />
        </mxCell>
        <mxCell id="h48BC2gFiE21k5p0eHc1-52" style="edgeStyle=orthogonalEdgeStyle;rounded=0;orthogonalLoop=1;jettySize=auto;html=1;exitX=0.5;exitY=1;exitDx=0;exitDy=0;entryX=0.5;entryY=0;entryDx=0;entryDy=0;" edge="1" parent="1">
          <mxGeometry relative="1" as="geometry">
            <mxPoint x="415" y="120" as="sourcePoint" />
            <mxPoint x="415" y="160" as="targetPoint" />
          </mxGeometry>
        </mxCell>
        <mxCell id="h48BC2gFiE21k5p0eHc1-86" style="edgeStyle=orthogonalEdgeStyle;rounded=0;orthogonalLoop=1;jettySize=auto;html=1;exitX=0.5;exitY=1;exitDx=0;exitDy=0;entryX=0.5;entryY=0;entryDx=0;entryDy=0;" edge="1" parent="1" source="h48BC2gFiE21k5p0eHc1-65" target="h48BC2gFiE21k5p0eHc1-11">
          <mxGeometry relative="1" as="geometry" />
        </mxCell>
        <mxCell id="h48BC2gFiE21k5p0eHc1-65" value="&lt;span style=&quot;font-size: 17px;&quot;&gt;&lt;b&gt;Doktora Danış&lt;/b&gt;&lt;/span&gt;" style="whiteSpace=wrap;html=1;fillColor=#ffff88;strokeColor=#36393d;rounded=1;arcSize=40;" vertex="1" parent="1">
          <mxGeometry x="335" y="475" width="160" height="60" as="geometry" />
        </mxCell>
        <mxCell id="h48BC2gFiE21k5p0eHc1-71" value="" style="ellipse;html=1;shape=endState;fillColor=#000000;strokeColor=#ff0000;" vertex="1" parent="1">
          <mxGeometry x="400" y="724" width="30" height="30" as="geometry" />
        </mxCell>
        <mxCell id="h48BC2gFiE21k5p0eHc1-89" value="" style="whiteSpace=wrap;html=1;aspect=fixed;" vertex="1" parent="1">
          <mxGeometry x="265" y="160" width="290" height="290" as="geometry" />
        </mxCell>
        <mxCell id="h48BC2gFiE21k5p0eHc1-90" value="&lt;span style=&quot;font-size: 14px;&quot;&gt;&lt;b&gt;Hasta Kontrol&lt;/b&gt;&lt;/span&gt;" style="rounded=1;whiteSpace=wrap;html=1;arcSize=40;fillColor=#fff2cc;strokeColor=#d6b656;gradientColor=#ffd966;" vertex="1" parent="1">
          <mxGeometry x="342.5" y="170" width="145" height="40" as="geometry" />
        </mxCell>
        <mxCell id="h48BC2gFiE21k5p0eHc1-99" style="edgeStyle=orthogonalEdgeStyle;rounded=0;orthogonalLoop=1;jettySize=auto;html=1;exitX=0.5;exitY=1;exitDx=0;exitDy=0;entryX=0.5;entryY=0;entryDx=0;entryDy=0;" edge="1" parent="1" source="h48BC2gFiE21k5p0eHc1-91" target="h48BC2gFiE21k5p0eHc1-92">
          <mxGeometry relative="1" as="geometry" />
        </mxCell>
        <mxCell id="h48BC2gFiE21k5p0eHc1-91" value="&lt;b&gt;Tıbbi Geçmiş Doğrulaması&lt;/b&gt;" style="rounded=1;whiteSpace=wrap;html=1;arcSize=40;fillColor=#fff2cc;strokeColor=#d6b656;gradientColor=#ffd966;" vertex="1" parent="1">
          <mxGeometry x="335" y="240" width="185" height="40" as="geometry" />
        </mxCell>
        <mxCell id="h48BC2gFiE21k5p0eHc1-93" style="edgeStyle=orthogonalEdgeStyle;rounded=0;orthogonalLoop=1;jettySize=auto;html=1;exitX=0;exitY=0.5;exitDx=0;exitDy=0;entryX=0;entryY=0.75;entryDx=0;entryDy=0;" edge="1" parent="1" source="h48BC2gFiE21k5p0eHc1-92" target="h48BC2gFiE21k5p0eHc1-90">
          <mxGeometry relative="1" as="geometry" />
        </mxCell>
        <mxCell id="h48BC2gFiE21k5p0eHc1-92" value="&lt;span style=&quot;font-size: 14px;&quot;&gt;&lt;b&gt;Geçmiş Geçerli mi?&lt;/b&gt;&lt;/span&gt;" style="rounded=1;whiteSpace=wrap;html=1;arcSize=40;fillColor=#fff2cc;strokeColor=#d6b656;gradientColor=#ffd966;" vertex="1" parent="1">
          <mxGeometry x="355" y="340" width="145" height="40" as="geometry" />
        </mxCell>
        <mxCell id="h48BC2gFiE21k5p0eHc1-94" value="&lt;font style=&quot;font-size: 13px;&quot;&gt;&lt;b&gt;Hayir&lt;/b&gt;&lt;/font&gt;" style="text;html=1;align=center;verticalAlign=middle;whiteSpace=wrap;rounded=0;" vertex="1" parent="1">
          <mxGeometry x="265" y="250" width="60" height="30" as="geometry" />
        </mxCell>
        <mxCell id="h48BC2gFiE21k5p0eHc1-95" style="edgeStyle=orthogonalEdgeStyle;rounded=0;orthogonalLoop=1;jettySize=auto;html=1;exitX=0.5;exitY=1;exitDx=0;exitDy=0;entryX=0.575;entryY=0.019;entryDx=0;entryDy=0;entryPerimeter=0;" edge="1" parent="1" source="h48BC2gFiE21k5p0eHc1-92" target="h48BC2gFiE21k5p0eHc1-65">
          <mxGeometry relative="1" as="geometry">
            <mxPoint x="408" y="500" as="targetPoint" />
          </mxGeometry>
        </mxCell>
        <mxCell id="h48BC2gFiE21k5p0eHc1-96" value="&lt;b style=&quot;font-size: 15px;&quot;&gt;Evet&lt;/b&gt;" style="text;html=1;align=center;verticalAlign=middle;whiteSpace=wrap;rounded=0;" vertex="1" parent="1">
          <mxGeometry x="305" y="398" width="215" height="30" as="geometry" />
        </mxCell>
        <mxCell id="h48BC2gFiE21k5p0eHc1-98" style="edgeStyle=orthogonalEdgeStyle;rounded=0;orthogonalLoop=1;jettySize=auto;html=1;exitX=0.5;exitY=1;exitDx=0;exitDy=0;entryX=0.437;entryY=0.083;entryDx=0;entryDy=0;entryPerimeter=0;" edge="1" parent="1" source="h48BC2gFiE21k5p0eHc1-90" target="h48BC2gFiE21k5p0eHc1-91">
          <mxGeometry relative="1" as="geometry" />
        </mxCell>
        <mxCell id="h48BC2gFiE21k5p0eHc1-102" style="edgeStyle=orthogonalEdgeStyle;rounded=0;orthogonalLoop=1;jettySize=auto;html=1;exitX=0.5;exitY=1;exitDx=0;exitDy=0;entryX=0.5;entryY=0;entryDx=0;entryDy=0;" edge="1" parent="1" source="h48BC2gFiE21k5p0eHc1-100" target="h48BC2gFiE21k5p0eHc1-71">
          <mxGeometry relative="1" as="geometry" />
        </mxCell>
        <mxCell id="h48BC2gFiE21k5p0eHc1-100" value="&lt;b&gt;&lt;font style=&quot;font-size: 15px;&quot;&gt;İlaç Reçetesi Yazılır:&lt;/font&gt;&lt;/b&gt;" style="whiteSpace=wrap;html=1;fillColor=#ffff88;strokeColor=#36393d;rounded=1;arcSize=40;" vertex="1" parent="1">
          <mxGeometry x="337.5" y="657" width="155" height="45" as="geometry" />
        </mxCell>
        <mxCell id="h48BC2gFiE21k5p0eHc1-110" style="edgeStyle=orthogonalEdgeStyle;rounded=0;orthogonalLoop=1;jettySize=auto;html=1;exitX=0.5;exitY=1;exitDx=0;exitDy=0;entryX=1;entryY=0.5;entryDx=0;entryDy=0;" edge="1" parent="1" source="h48BC2gFiE21k5p0eHc1-103" target="h48BC2gFiE21k5p0eHc1-71">
          <mxGeometry relative="1" as="geometry" />
        </mxCell>
        <mxCell id="h48BC2gFiE21k5p0eHc1-103" value="&lt;span style=&quot;font-size: 15px;&quot;&gt;&lt;b&gt;Hasta Taburcu Edilir&lt;/b&gt;&lt;/span&gt;" style="rounded=1;whiteSpace=wrap;html=1;arcSize=40;fillColor=#ffff88;strokeColor=#36393d;" vertex="1" parent="1">
          <mxGeometry x="608.75" y="560" width="181.25" height="50" as="geometry" />
        </mxCell>
        <mxCell id="h48BC2gFiE21k5p0eHc1-106" value="&lt;b style=&quot;font-size: 15px;&quot;&gt;Evet&lt;/b&gt;" style="text;html=1;align=center;verticalAlign=middle;whiteSpace=wrap;rounded=0;" vertex="1" parent="1">
          <mxGeometry x="460" y="550" width="215" height="30" as="geometry" />
        </mxCell>
        <mxCell id="h48BC2gFiE21k5p0eHc1-108" value="&lt;font style=&quot;font-size: 13px;&quot;&gt;&lt;b&gt;Hayir&lt;/b&gt;&lt;/font&gt;" style="text;html=1;align=center;verticalAlign=middle;whiteSpace=wrap;rounded=0;" vertex="1" parent="1">
          <mxGeometry x="365" y="615" width="60" height="30" as="geometry" />
        </mxCell>
      </root>
    </mxGraphModel>
  </diagram>
</mxfile>
